<?xml version="1.0" standalone="no"?><!DOCTYPE svg PUBLIC "-//W3C//DTD SVG 1.1//EN" "http://www.w3.org/Graphics/SVG/1.1/DTD/svg11.dtd"><svg t="1648538074205" class="icon" viewBox="0 0 1132 1024" version="1.1" xmlns="http://www.w3.org/2000/svg" p-id="2302" xmlns:xlink="http://www.w3.org/1999/xlink" width="221.09375" height="200"><defs><style type="text/css"></style></defs><path d="M761.168824 1000.308635l-0.00905 0.06787c0.456995-2.208057 11.976899-53.984278 83.485368-54.862071a11.221273 11.221273 0 0 0 11.071958-11.35249 11.221273 11.221273 0 0 0-11.357015-11.067433c-90.227181 1.113078-105.06822 72.223372-105.208485 72.9428a11.203174 11.203174 0 0 0 8.87295 13.135224 11.207699 11.207699 0 0 0 13.144274-8.8639z" fill="#DFA000" p-id="2303"></path><path d="M793.828158 940.582503l-25.78178-42.541295a11.203174 11.203174 0 1 0-19.166658 11.619448l25.786304 42.53677c3.208017 5.293907 10.094621 6.981623 15.388529 3.773605s6.990672-10.094621 3.773605-15.388528z" fill="#DFA000" p-id="2304"></path><path d="M909.067919 235.008753c56.631232-41.849014 54.694657-113.977368-87.390189-76.634961-233.83233 61.45457-211.222369 56.527164-225.194665 142.157242-9.194204 56.409521 59.146969 142.591614 262.025779 81.467349 96.367208 2.542885-131.343193-12.619408 50.559075-146.98963z" fill="#8383A3" p-id="2305"></path><path d="M222.271703 282.662967c11.1896 35.283665 64.703309 34.170587 154.77665-5.995237 90.887788-40.496127 168.721797-92.688622 157.527672-127.98586-11.203174-35.283665-89.335814-16.497081-182.214473 17.714227-92.887709 34.19321-141.283974 80.965106-130.089849 116.26687z" p-id="2306"></path><path d="M222.271703 282.662967c11.1896 35.283665 64.703309 34.170587 154.77665-5.995237 90.887788-40.496127 168.721797-92.688622 157.527672-127.98586-11.203174-35.283665-89.335814-16.497081-182.214473 17.714227-92.887709 34.19321-141.283974 80.965106-130.089849 116.26687z" fill="#FFFFFF" opacity=".43" p-id="2307"></path><path d="M702.406455 190.802367c-3.809803 1.004485-7.533637 1.981822-11.207699 2.941059-9.384242-33.374238-23.573723-63.784794-48.075011-83.589436-41.020993-33.148003-132.130492-44.894142-207.218004-53.920932-42.106923-12.465568-118.904773-20.569318-206.720285-26.487635C95.747323 20.76388 14.017542 34.912639 13.474577 61.631033c-0.402699 20.162094 38.876282 34.935262 115.09497 42.753956-21.474259 11.004087-33.175151 24.329349-30.111924 37.577691 3.389005 14.646476 24.175509 26.193528 54.400551 32.668384-9.049414 10.34348-12.705377 20.92677-9.483785 30.790631 6.149077 18.791108 35.763284 30.636791 76.110095 33.464732 2.203532 1.357412 4.47041 2.723874 6.78706 4.076761-7.682952 12.619408-9.795991 25.062352-5.045048 36.170507 9.967929 23.302241 47.645164 34.97146 95.846867 33.220399 216.624869 64.884297 35.577771 341.597275 187.766288 234.922784 54.703707-38.346891 169.183317-104.384989 227.171961-133.067107 2.447866 0.085969 4.868585 0.162889 7.235007 0.226236 35.514425 0.936614 27.003451-0.542965 11.212223-9.492835 38.505256-19.727722 53.26485-30.627741 13.117126-25.170945-22.668782 3.076801-34.831194-12.556062-42.907796-37.993964 7.633181-19.420042 27.772651-43.794638 69.123948-74.34546 56.635757-41.839965 54.703707-113.977368-87.385665-76.630436z" fill="#8383A3" p-id="2308"></path><path d="M709.021576 296.246137c0-42.962092 82.60305-68.639804 81.227539-80.43119-1.380036-33.985074-91.865125 5.266759-95.045994-6.845882-11.642071-44.328554-31.700097-72.331965-81.082748-106.92335-35.518949-24.876839-114.361968-33.686443-179.354858-40.464454-36.446514-9.352569-102.918984-15.433775-178.920486-19.872512-115.506719-6.741813-186.250511 3.877674-186.716556 23.922125-0.352927 15.135145 33.650245 26.211627 99.615947 32.089222-18.592021 8.25759-28.71379 18.257192-26.066836 28.193449 2.93201 10.990513 20.92677 19.655327 47.088625 24.519386-7.827743 7.759872-10.999563 15.700733-8.207819 23.094105 5.321055 14.098987 30.95352 22.985511 65.884258 25.107598 1.904902 1.031633 3.8641 2.045168 5.87307 3.067752-6.655844 9.470212-8.479301 18.800157-4.366343 27.143717 8.624091 17.478943 41.238179 26.2433 82.960502 24.922085 256.564457 0 51.921012 275.586325 183.648805 195.530686C604.880922 395.025014 709.021576 370.455855 709.021576 296.246137z" fill="#8D8DB0" p-id="2309"></path><path d="M928.415566 399.364208c-13.886326-3.8641-38.025637 4.936455-49.002576 18.397458-5.045048 6.216947-0.945664 13.04473-3.117523 20.732208-2.54741 9.094661-5.289382 18.890651-3.253264 28.030559 2.049692 9.148957 8.87295 17.641832 9.316371 25.057827 0.601786 10.044849-4.275848 22.424448 0.434372 33.966975 2.846041 6.972573 13.067354 11.031236 16.506131 18.478903 1.882278 4.054137-3.746457 12.320777-0.995436 15.212065 9.424965 9.918158 22.528516 13.628417 31.532683 13.289064 1.601746-1.99992 3.189918-4.00889 4.809763-6.058583 33.758838-42.830876 110.045397 16.117006 132.085245 1.488629 5.348204-81.223014-61.956812-148.14343-138.315766-168.595105z" p-id="2310"></path><path d="M1010.25394 424.010287c-30.772532-23.840681-70.54923-40.523275-114.108584-48.292197-14.433815 3.040603-30.071202 11.261996-38.794837 21.967452-6.081206 7.474816-1.140226 15.705258-3.764556 24.980907-3.076801 10.945266-6.366263 22.754751-3.913872 33.781462 2.475015 11.017661 10.682833 21.252548 11.221273 30.188844 0.728478 12.099066-5.158166 27.02155 0.520342 40.92145 3.429728 8.406905 15.741455 13.293589 19.890611 22.270607 2.262353 4.873109-4.524707 14.831989-1.212621 18.320539 11.366064 11.96785 27.157291 16.433736 37.998489 16.012938 1.927525-2.411669 3.85505-4.814288 5.796149-7.289303a49.667708 49.667708 0 0 1 10.180591-9.691923c0.185513-0.244334 0.371026-0.47057 0.565588-0.710379 38.91248-49.355503 134.347598 36.537008 138.089531-10.904543 2.524786-32.111845-5.307481-61.110692-20.791028-86.114223-11.465607-16.863583-25.623415-32.148043-41.677076-45.441631z" opacity=".31" p-id="2311"></path><path d="M856.4863 371.197907c-10.587814 4.836912-20.347607 11.623972-26.849611 19.601031-7.158086 8.800555-1.334789 18.487953-4.429688 29.401545-3.628815 12.89089-7.492915 26.79079-4.615201 39.754076 2.909387 12.972335 12.574161 25.017105 13.212144 35.537048 0.850645 14.234728-6.081206 31.795116 0.62441 48.17003 4.026989 9.900059 18.519625 15.641912 23.410833 26.225201 2.665052 5.732804-5.32558 17.442745-1.416233 21.560229 12.347925 12.994958 29.084816 18.415557 41.622779 18.795632 11.823059-13.135224 23.84973-27.587138 36.604879-43.772015 38.91248-49.364553 134.356648 36.532484 138.094056-10.904543 8.325461-106.041032-96.240516-178.169385-216.258368-184.368234z" opacity=".31" p-id="2312"></path><path d="M386.075144 809.121668c3.379956 44.568363 114.398165 48.206228 193.471943 25.636989 0.140266 0.176464 0.244334 0.371026 0.411749 0.520342 61.852744 52.694737 63.047266 46.989081 98.729105 65.888782 32.283784 14.859138 62.232819 17.818296 90.39007 2.683151 45.830757-24.686801-39.120616-158.143032 30.976144-209.059559a83.707078 83.707078 0 0 0 7.687477-6.253145c47.907597-31.315497 83.123391-66.504142 126.913505-122.067544 38.907955-49.355503 134.352123 36.537008 138.089531-10.904543 11.547052-146.867462-193.476468-246.085236-356.193979-160.373713l-507.758088 293.65348C84.055481 756.98347 20.700534 797.932068 37.939668 826.591561c0 0 35.247467 51.459492 160.079606-12.451993-0.004525 0.004525-16.2075 77.331766 188.05587-5.0179l177.173949-83.096243" fill="#8D8DB0" p-id="2313"></path><path d="M1069.138476 537.770468s41.441791 58.554232 10.827624 85.317874c-4.850486 4.23965-6.416034 7.320976-15.542368 9.456638 0 0 6.397936-4.411589 9.900059-15.103472 4.280373-13.103551 0.660607-31.062113-36.523435-46.24703 0 0-5.71923-2.018019-0.909466-14.96773 5.072196-13.623893 25.849651-28.392536 32.247586-18.45628z" fill="#F7C663" p-id="2314"></path><path d="M957.468709 457.058746l25.677712 14.252827a11.207699 11.207699 0 0 0 10.88192-19.596506l-25.682236-14.252827a11.203174 11.203174 0 1 0-10.877396 19.596506z" fill="#6E6E96" p-id="2315"></path><path d="M451.316893 662.218008c-33.632147-11.212224-242.130642 98.643136-316.114125 130.031028-73.983483 31.387892-46.052467-19.691525-46.052467-19.691525s-64.047227 19.967532-51.215158 54.029526c12.832069 34.061994 155.944024-2.036118 155.944024-2.036119s213.697384-99.353515 254.247808-123.556172 36.81754-27.569039 3.189918-38.776738z m452.000124-273.925758c-15.175867 15.239213-41.898786 72.408885-41.898786 139.781771 0 43.197377-28.505654 57.572371-60.391264 78.146214-17.840919 11.510854-137.772801 51.681203-153.324219 73.209758-7.388846 10.221313 114.009041-30.781581 85.100688 6.284818-16.687119 56.373324 6.972573 121.271195 6.972573 121.271195 1.678666 25.175469 17.583011 46.925736-5.977138 54.776102-47.075051 15.696208-143.482982-65.015514-143.482981-65.015514s-40.355861 6.71919-80.711722 6.71919c-40.351336 0 29.813294-6.366263 63.798367-40.351336 29.505614-29.505614 26.16638-40.966697 16.551378-45.210872-38.478108-38.487157-129.669051 22.790949-221.588472 65.38654S257.727307 797.343856 257.727307 797.343856l-54.907319 26.433338c34.242982 44.717679 194.431182-15.492597 194.431182-15.492597l63.44544-29.758997-70.431588 41.002894c21.899582 58.662825 189.282065 15.243738 189.282065 15.243737s3.081325 10.782377 68.952009 51.368998c65.870684 40.586621 115.090446 20.424527 132.383876 3.126573 13.655566-13.655566-1.221671-103.832975-8.094701-141.2704 8.57432-44.577413 40.767609-73.381697 71.617061-87.792889 42.808252-20.003729 90.779195-104.986775 90.779196-104.986775-57.65834-53.518234-31.867511-166.925488-31.867511-166.925488z" fill="#6E6E96" opacity=".41" p-id="2316"></path><path d="M939.496573 389.237914s-83.13244 47.292237 22.980987 116.040634c71.807099 46.523037 108.728708-26.600752 29.890214-95.656829 0 0 68.060642 50.183525 68.060642 113.823527l-26.216152 38.627423s-58.28275-25.410754-95.65683-4.483984c0.013574 0.004525-99.765263-136.428963 0.941139-168.350771z" fill="#6E6E96" opacity=".15" p-id="2317"></path><path d="M836.618312 166.219634s67.567449 5.759952 24.225281 65.544904-128.076354 107.393919-60.30077 123.945297l-62.314263 17.14864s-29.25223-21.347567-7.117364-49.830598c22.134866-28.487555 127.560538-97.783442 87.892432-125.637537s-7.063068-7.072117-7.063068-7.072117l-43.486958-9.900059 68.16471-14.19853z" fill="#6E6E96" opacity=".26" p-id="2318"></path></svg>